# xmcd
#
# Track frame offsets:
# 150
# 15975
# 31690
# 44393
# 55341
# 68808
# 79915
# 89592
# 102545
# 112768
# 123901
# 133652
# 152782
# 169342
#
# Disc length: 2452 seconds
#
#
# Revision: 0
# Processed by: cddbd v1.5.2PL0 Copyright (c) Steve Scherf et al.
# Submitted via: FreeRIP 2.951 
#
DISCID=b209920e
DTITLE=Various Artist - Soul Disk 1
DYEAR=2006
DGENRE=Soul
TTITLE0=I feel good
TTITLE1=Knock on wood
TTITLE2=When a man loves a woman
TTITLE3=If you need me
TTITLE4=Patches
TTITLE5=Morning glory
TTITLE6=the Bells
TTITLE7=Just Because
TTITLE8=You made me cry
TTITLE9=My baby
TTITLE10=I found a love
TTITLE11=Nice and slow
TTITLE12=Endlessly
TTITLE13=Release Me
EXTD=
EXTT0=
EXTT1=
EXTT2=
EXTT3=
EXTT4=
EXTT5=
EXTT6=
EXTT7=
EXTT8=
EXTT9=
EXTT10=
EXTT11=
EXTT12=
EXTT13=
PLAYORDER=
